<?xml version="1.0" encoding="UTF-8" standalone="no"?>
<svg
   xmlns:dc="http://purl.org/dc/elements/1.1/"
   xmlns:cc="http://creativecommons.org/ns#"
   xmlns:rdf="http://www.w3.org/1999/02/22-rdf-syntax-ns#"
   xmlns:svg="http://www.w3.org/2000/svg"
   xmlns="http://www.w3.org/2000/svg"
   xmlns:sodipodi="http://sodipodi.sourceforge.net/DTD/sodipodi-0.dtd"
   xmlns:inkscape="http://www.inkscape.org/namespaces/inkscape"
   version="1.1"
   id="Capa_1"
   x="0px"
   y="0px"
   width="95.802px"
   height="95.802px"
   viewBox="0 0 95.802 95.802"
   xml:space="preserve"
   sodipodi:docname="behance-logo-down.svg"
   inkscape:version="1.0.2 (e86c870879, 2021-01-15)"
   style="enable-background:new 0 0 95.802 95.802;"><metadata
   id="metadata47"><rdf:RDF><cc:Work
       rdf:about=""><dc:format>image/svg+xml</dc:format><dc:type
         rdf:resource="http://purl.org/dc/dcmitype/StillImage" /><dc:title /></cc:Work></rdf:RDF></metadata><defs
   id="defs45" /><sodipodi:namedview
   pagecolor="#ffffff"
   bordercolor="#666666"
   borderopacity="1"
   objecttolerance="10"
   gridtolerance="10"
   guidetolerance="10"
   inkscape:pageopacity="0"
   inkscape:pageshadow="2"
   inkscape:window-width="1920"
   inkscape:window-height="1016"
   id="namedview43"
   showgrid="false"
   inkscape:zoom="4.9009299"
   inkscape:cx="63.206614"
   inkscape:cy="17.338267"
   inkscape:window-x="0"
   inkscape:window-y="0"
   inkscape:window-maximized="1"
   inkscape:current-layer="Capa_1"
   inkscape:document-rotation="0" />
<g
   id="g10"
   style="fill:#ffffff;fill-opacity:1"
   transform="translate(0,7.564)">
	<g
   id="g8"
   style="fill:#ffffff;fill-opacity:1">
		<path
   d="m 38.664,44.689 c 0,0 9.065,-0.673 9.065,-11.306 0,-10.632 -7.417,-15.819 -16.813,-15.819 H 13.622 13.114 0 v 59.414 h 13.114 0.508 17.294 c 0,0 18.873,0.597 18.873,-17.536 10e-4,0 0.824,-14.753 -11.125,-14.753 z M 13.622,28.125 h 15.069 2.226 c 0,0 4.203,0 4.203,6.181 0,6.181 -2.473,7.077 -5.275,7.077 H 13.622 Z M 30.119,66.42 H 13.622 V 50.541 h 17.294 c 0,0 6.264,-0.08 6.264,8.16 0,6.871 -4.581,7.65 -7.061,7.719 z"
   id="path2"
   style="fill:#ffffff;fill-opacity:1" />
		<rect
   x="62.18"
   y="21.063999"
   width="24.514"
   height="7.3169999"
   id="rect4"
   style="fill:#ffffff;fill-opacity:1" />
		<path
   d="m 74.961,32.682 c -22.848,0 -22.828,22.826 -22.828,22.826 0,0 -1.566,22.713 22.829,22.713 0,0 20.331,1.162 20.331,-15.801 H 84.837 c 0,0 0.349,6.391 -9.526,6.391 0,0 -10.455,0.699 -10.455,-10.34 h 30.785 c 0,0 3.368,-25.789 -20.68,-25.789 z m 9.294,17.859 H 64.738 c 0,0 1.277,-9.158 10.455,-9.158 9.179,-0.001 9.062,9.158 9.062,9.158 z"
   id="path6"
   style="fill:#ffffff;fill-opacity:1" />
	</g>
</g>
<g
   id="g12">
</g>
<g
   id="g14">
</g>
<g
   id="g16">
</g>
<g
   id="g18">
</g>
<g
   id="g20">
</g>
<g
   id="g22">
</g>
<g
   id="g24">
</g>
<g
   id="g26">
</g>
<g
   id="g28">
</g>
<g
   id="g30">
</g>
<g
   id="g32">
</g>
<g
   id="g34">
</g>
<g
   id="g36">
</g>
<g
   id="g38">
</g>
<g
   id="g40">
</g>
</svg>
