<svg xmlns="http://www.w3.org/2000/svg" width="16.626" height="20.931" viewBox="0 0 16.626 20.931"><defs><style>.a{fill:#ff8a77;}</style></defs><path class="a" d="M6171.01,3256.508c-.016-.047-.028-.1-.049-.14a.992.992,0,0,0-.336-.407q-1.092-.753-2.187-1.5c-.3-.2-.6-.4-.9-.585a1.485,1.485,0,0,0-.624-.222.447.447,0,0,0-.3.062c-.374.234-.751.46-1.127.689-.022.013-.042.028-.073.048l5.26,3.675c.009-.027.016-.045.021-.062.082-.327.165-.653.246-.98.032-.128.059-.257.089-.385C6171.018,3256.635,6171.015,3256.572,6171.01,3256.508Z" transform="translate(-6154.396 -3239.216)"/><path class="a" d="M6094.387,3089.239c.042.508.093,1.016.146,1.523.018.169.047.337.075.5a.133.133,0,0,0,.148.125.776.776,0,0,0,.182-.021,1.961,1.961,0,0,0,.823-.494c.121-.145.231-.3.347-.447a.15.15,0,0,0,.031-.117c-.1-1.347-.2-2.693-.3-4.04a.527.527,0,0,0-.141-.33.978.978,0,0,0-.133-.125,2.391,2.391,0,0,0-.918-.441c-.09-.022-.182-.032-.272-.048l-.239.015-.053.032c0,.02,0,.039,0,.057C6094.185,3086.7,6094.282,3087.97,6094.387,3089.239Z" transform="translate(-6089.185 -3085.329)"/><path class="a" d="M6047.086,3102.068a1.9,1.9,0,0,1-.765.13,1.4,1.4,0,0,1-.933-.409,3.22,3.22,0,0,1-.376-.454c-.422-.583-.809-1.19-1.191-1.8-.929-1.486-1.824-2.993-2.706-4.507a1.127,1.127,0,0,1-.072-.151,2.539,2.539,0,0,1-.184-.78,1.825,1.825,0,0,1,.164-.938,1.781,1.781,0,0,1,.622-.7c.08-.054.162-.1.246-.154,0-.028,0-.058-.007-.086q-.029-.338-.06-.675-.091-.98-.18-1.961c-.039-.423-.075-.847-.114-1.27q-.092-1.028-.187-2.056c0-.028-.007-.056-.011-.083a.133.133,0,0,0-.03-.005l-.063.006a6.817,6.817,0,0,0-1.042.22,5.369,5.369,0,0,0-1.739.855,3.6,3.6,0,0,0-1.453,2.772c-.006.113-.017.226-.025.339.014.228.028.456.041.685.007.031.015.061.019.092.036.315.067.629.106.943.049.389.094.781.16,1.168q.012.08.026.16c.079.463.164.924.259,1.383.113.556.255,1.1.415,1.648l.041.142c.012.04.024.079.037.118a16.336,16.336,0,0,0,.84,2.2,8.992,8.992,0,0,0,.866,1.493c.635.859,1.293,1.7,2,2.5a21.236,21.236,0,0,0,1.581,1.629c.195.177.393.352.6.52a10.869,10.869,0,0,0,1.838,1.257,6.28,6.28,0,0,0,1.945.679,2.766,2.766,0,0,0,.681.038c.254-.023.51-.034.764-.048a.848.848,0,0,0,.2-.035,13.62,13.62,0,0,0,1.958-.776,9.054,9.054,0,0,0,1.3-.767c.023-.016.044-.034.072-.053q-2.568-1.778-5.116-3.539A2.646,2.646,0,0,1,6047.086,3102.068Z" transform="translate(-6036.981 -3086.094)"/></svg>