<?xml version="1.0" encoding="UTF-8" standalone="no"?>
<svg
   xmlns:dc="http://purl.org/dc/elements/1.1/"
   xmlns:cc="http://creativecommons.org/ns#"
   xmlns:rdf="http://www.w3.org/1999/02/22-rdf-syntax-ns#"
   xmlns:svg="http://www.w3.org/2000/svg"
   xmlns="http://www.w3.org/2000/svg"
   xmlns:sodipodi="http://sodipodi.sourceforge.net/DTD/sodipodi-0.dtd"
   xmlns:inkscape="http://www.inkscape.org/namespaces/inkscape"
   id="Bold"
   enable-background="new 0 0 24 24"
   height="135.46666mm"
   viewBox="0 0 24 24"
   width="135.46666mm"
   version="1.1"
   sodipodi:docname="linkedin-logo-small.svg"
   inkscape:version="1.0.2 (e86c870879, 2021-01-15)">
  <metadata
     id="metadata13">
    <rdf:RDF>
      <cc:Work
         rdf:about="">
        <dc:format>image/svg+xml</dc:format>
        <dc:type
           rdf:resource="http://purl.org/dc/dcmitype/StillImage" />
        <dc:title></dc:title>
      </cc:Work>
    </rdf:RDF>
  </metadata>
  <defs
     id="defs11" />
  <sodipodi:namedview
     pagecolor="#ffffff"
     bordercolor="#666666"
     borderopacity="1"
     objecttolerance="10"
     gridtolerance="10"
     guidetolerance="10"
     inkscape:pageopacity="0"
     inkscape:pageshadow="2"
     inkscape:window-width="1920"
     inkscape:window-height="1016"
     id="namedview9"
     showgrid="false"
     inkscape:zoom="1.0965679"
     inkscape:cx="256"
     inkscape:cy="202.32327"
     inkscape:window-x="0"
     inkscape:window-y="0"
     inkscape:window-maximized="1"
     inkscape:current-layer="Bold"
     inkscape:document-rotation="0"
     lock-margins="true"
     units="px" />
  <g
     id="g1474"
     transform="matrix(0.7993859,0,0,0.7993859,2.4073693,2.3853774)">
    <path
       d="M 23.994,24 V 23.999 H 24 v -8.802 c 0,-4.306 -0.927,-7.623 -5.961,-7.623 -2.42,0 -4.044,1.328 -4.707,2.587 h -0.07 V 7.976 H 8.489 v 16.023 h 4.97 v -7.934 c 0,-2.089 0.396,-4.109 2.983,-4.109 2.549,0 2.587,2.384 2.587,4.243 V 24 Z"
       id="path2"
       style="fill:#ffffff;fill-opacity:1" />
    <path
       d="m 0.396,8.032022 h 4.976 v 16.023 H 0.396 Z"
       id="path4"
       style="fill:#ffffff;fill-opacity:1" />
    <path
       d="M 2.882,0 C 1.291,0 0,1.291 0,2.882 0,4.473 1.291,5.791 2.882,5.791 4.473,5.791 5.764,4.473 5.764,2.882 5.763,1.291 4.472,0 2.882,0 Z"
       id="path6"
       style="fill:#ffffff;fill-opacity:1" />
  </g>
</svg>
